<svg width="350" height="350" viewBox="0 0 350 350" fill="none" xmlns="http://www.w3.org/2000/svg">
<path fill-rule="evenodd" clip-rule="evenodd" d="M132.873 65.9825C128.629 62.0387 125.757 57.2054 126.236 51.7896C127.62 36.185 155.058 39.6178 160.395 47.4937C165.733 55.3695 165.098 75.3471 158.2 76.7548C155.449 77.3161 149.589 75.941 143.625 73.095L147.368 94.0627H125.263L132.873 65.9825Z" fill="#03045E"/>
<path fill-rule="evenodd" clip-rule="evenodd" d="M131.175 69.4951C128.4 59.7235 120.496 53.0626 121.703 48.6951C122.508 45.7834 124.653 43.9728 128.138 43.2631C129.94 37.4906 135.754 35.0353 145.578 35.8972C160.313 37.1902 169.307 42.0349 165.423 52.6954C161.853 52.6954 157.543 51.6732 151.583 53.4246C149.692 53.9803 148.339 55.7036 147.525 58.5944H144.832C142.218 55.1638 139.64 53.9031 137.099 54.8124C134.559 55.7217 133.981 57.9305 135.367 61.4386L134.04 69.4951H131.175Z" fill="#FF5400"/>
<path fill-rule="evenodd" clip-rule="evenodd" d="M123.421 154.583L168.628 245.165L198.948 321.745H210.921L164.568 154.583L123.421 154.583Z" fill="#03045E"/>
<path fill-rule="evenodd" clip-rule="evenodd" d="M114.318 154.583C113.837 186.414 106.816 229.27 105.695 231.254C104.947 232.577 79.1333 249.399 28.2541 281.719L36.5005 288.705C96.5332 260.994 127.939 245.291 130.717 241.595C134.884 236.051 148.45 185.036 159.342 154.583H114.318Z" fill="#03045E"/>
<path fill-rule="evenodd" clip-rule="evenodd" d="M26.8769 279.309C24.1581 280.036 22.2901 280.736 21.273 281.41C20.036 282.23 18.4108 283.595 16.3975 285.506C17.6506 286.685 28.9126 297.282 50.1833 317.296C54.3852 315.92 55.6729 314.255 54.0463 312.299C52.4197 310.344 51.0877 308.706 50.0501 307.388L42.3637 287.3C42.2158 286.914 41.7062 286.684 41.2254 286.786C41.2172 286.788 41.209 286.79 41.2009 286.792L37.3875 287.7C34.7007 286.672 32.8099 285.643 31.7151 284.613C30.8255 283.776 30.0085 282.347 29.264 280.327C28.9782 279.552 27.9647 279.083 27.0002 279.28C26.9586 279.289 26.9175 279.298 26.8769 279.309Z" fill="#E4E4E4"/>
<path fill-rule="evenodd" clip-rule="evenodd" d="M194.046 318.21C193.015 320.387 192.5 322.017 192.5 323.098C192.5 324.413 192.777 326.331 193.33 328.854C195.257 328.854 212.573 328.854 245.279 328.854C246.629 325.321 245.85 323.413 242.941 323.132C240.033 322.85 237.617 322.596 235.693 322.369L211.547 313.847C211.083 313.683 210.538 313.848 210.331 314.216C210.328 314.222 210.324 314.229 210.321 314.235L208.769 317.216C206.076 318.21 203.888 318.707 202.205 318.707C200.837 318.707 198.948 318.27 196.538 317.396C195.614 317.06 194.52 317.381 194.096 318.114C194.078 318.145 194.061 318.177 194.046 318.21Z" fill="#E4E4E4"/>
<path fill-rule="evenodd" clip-rule="evenodd" d="M153.816 313.857L210.741 308.966L168.553 154.583H117.567L153.816 313.857Z" fill="#69A1AC"/>
<path fill-rule="evenodd" clip-rule="evenodd" d="M40.0289 270.448L77.3684 305.438C116.697 271.432 139.626 249.244 146.155 238.872C152.684 228.5 158.553 200.404 163.762 154.583H106.361C103.516 194.894 101.598 215.988 100.607 217.864C99.6164 219.74 79.4237 237.268 40.0289 270.448Z" fill="#89C5CC"/>
<path fill-rule="evenodd" clip-rule="evenodd" d="M197.105 125.643L233.471 121.716C240.746 118.513 247.438 116.344 253.548 115.21C255.267 115.171 258.003 115.665 253.928 118.355C249.853 121.044 245.719 124.019 246.445 125.454C247.171 126.889 250.96 126.355 251.588 128.563C252.006 130.035 245.856 130.274 233.138 129.28L203.63 138.542L197.105 125.643ZM82.8669 132.307L103.036 132.367C80.9201 171.767 69.3887 192.396 68.4415 194.254C66.3102 198.435 70.8203 204.804 72.749 208.226C66.4673 210.451 67.1366 202.21 59.2125 205.129C51.9798 207.793 46.4779 212.619 38.1215 208.537C37.0941 208.036 35.9683 206.146 38.6884 204.669C45.4653 200.991 55.2312 194.552 56.5507 192.433C58.3501 189.543 67.1222 169.501 82.8669 132.307Z" fill="#03045E"/>
<path fill-rule="evenodd" clip-rule="evenodd" d="M138.111 81.6666L153.903 82.4995C157.792 110.355 178.976 127.949 226.405 121.992L232.706 157.864C188.376 162.399 149.499 148.349 141.531 110.307C139.469 100.459 137.84 90.2109 138.111 81.6666Z" fill="#AFB9C5"/>
<path fill-rule="evenodd" clip-rule="evenodd" d="M130.32 78.0324L154.246 82.3704C154.246 114.949 167.355 135.735 174.079 159.687H109.461C108.551 167.964 107.992 176.471 107.701 185.208H59.3173C70.2813 139.026 93.4225 103.297 128.741 78.0208H130.308L130.32 78.0324Z" fill="#C5CFD6"/>
<path fill-rule="evenodd" clip-rule="evenodd" d="M119.656 113.21C117.991 133.511 118.97 149.003 122.594 159.687H109.461C111.264 143.291 114.446 127.799 119.656 113.21Z" fill="black" fill-opacity="0.1"/>
</svg>
