<svg width="150" height="150" viewBox="0 0 150 150" fill="none" xmlns="http://www.w3.org/2000/svg">
<path fill-rule="evenodd" clip-rule="evenodd" d="M56.9456 28.2782C55.1267 26.5879 53.8957 24.5165 54.1014 22.1955C54.6941 15.5078 66.4534 16.979 68.7408 20.3544C71.0282 23.7297 70.7564 32.2916 67.8001 32.8948C66.6212 33.1354 64.1096 32.5461 61.5534 31.3263L63.1579 40.3125H53.6842L56.9456 28.2782Z" fill="#FF9E00"/>
<path fill-rule="evenodd" clip-rule="evenodd" d="M37.2857 11.5625C37.9962 15.1187 39.8616 18.3711 42.8817 21.3197C39.3601 19.1566 37.0399 16.1319 35.9211 12.2458L37.2857 11.5625ZM35.5257 12.9194C36.6913 16.74 39.7178 20.3502 44.6053 23.75C38.95 21.0476 35.3974 17.5602 33.9474 13.2878L35.5257 12.9194Z" fill="black" fill-opacity="0.2"/>
<path fill-rule="evenodd" clip-rule="evenodd" d="M52.8947 66.25L72.2691 105.071L85.2635 137.891H90.3947L70.5291 66.25L52.8947 66.25Z" fill="#FF9E00"/>
<path fill-rule="evenodd" clip-rule="evenodd" d="M48.9934 66.25C48.7871 79.8919 45.7784 98.2586 45.2977 99.109C44.9772 99.6759 33.9143 106.885 12.1089 120.737L15.6431 123.731C41.3714 111.855 54.8309 105.125 56.0214 103.541C57.8073 101.165 63.6215 79.301 68.2895 66.25H48.9934Z" fill="#FF9E00"/>
<path fill-rule="evenodd" clip-rule="evenodd" d="M11.5187 119.704C10.3535 120.015 9.55291 120.316 9.11701 120.604C8.58686 120.956 7.89036 121.541 7.0275 122.36C7.56455 122.865 12.3911 127.406 21.5071 135.984C23.3079 135.394 23.8598 134.681 23.1627 133.842C22.4656 133.004 21.8947 132.303 21.45 131.738L18.1559 123.129C18.0925 122.963 17.8741 122.864 17.668 122.908C17.6645 122.909 17.661 122.91 17.6575 122.911L16.0232 123.3C14.8717 122.859 14.0614 122.418 13.5922 121.977C13.2109 121.618 12.8608 121.006 12.5417 120.14C12.4192 119.808 11.9849 119.607 11.5715 119.692C11.5537 119.695 11.5361 119.699 11.5187 119.704Z" fill="#E4E4E4"/>
<path fill-rule="evenodd" clip-rule="evenodd" d="M83.1624 136.376C82.7208 137.309 82.5 138.007 82.5 138.471C82.5 139.034 82.6186 139.856 82.8558 140.938C83.6815 140.938 91.1028 140.938 105.12 140.938C105.698 139.423 105.364 138.606 104.118 138.485C102.871 138.364 101.836 138.255 101.011 138.158L90.6632 134.506C90.464 134.436 90.2307 134.506 90.1419 134.664C90.1404 134.667 90.1389 134.67 90.1375 134.672L89.4723 135.95C88.3184 136.376 87.3807 136.589 86.6592 136.589C86.0731 136.589 85.2635 136.402 84.2307 136.027C83.8344 135.883 83.3658 136.021 83.1841 136.334C83.1762 136.348 83.169 136.362 83.1624 136.376Z" fill="#E4E4E4"/>
<path fill-rule="evenodd" clip-rule="evenodd" d="M65.9211 134.51L90.3176 132.414L72.2369 66.25H50.3858L65.9211 134.51Z" fill="#69A1AC"/>
<path fill-rule="evenodd" clip-rule="evenodd" d="M17.1553 115.906L33.1579 130.902C50.0132 116.328 59.8398 106.819 62.6379 102.374C65.4359 97.9287 67.9512 85.8875 70.1838 66.25H45.5835C44.364 83.5262 43.5419 92.5663 43.1173 93.3702C42.6928 94.1742 34.0387 101.686 17.1553 115.906Z" fill="#89C5CC"/>
<path fill-rule="evenodd" clip-rule="evenodd" d="M85.2807 61.2883L96.4628 69.9243C99.7163 71.023 102.382 72.2361 104.46 73.5638C104.928 74.0101 105.436 74.8652 103.238 74.4825C101.039 74.0999 98.7043 73.7757 98.291 74.3418C97.8778 74.9079 99.0955 75.7753 98.3317 76.5162C97.8225 77.0101 96.1102 75.4391 93.1946 71.8031L81.5667 66.3758L85.2807 61.2883ZM35.6479 62.5063L43.8968 62.5319C38.8035 75.5487 36.0538 82.4553 35.6479 83.2518C34.7345 85.0438 36.6673 87.7731 37.4939 89.2398C34.8018 90.1934 35.0886 86.6616 31.6926 87.9124C28.5929 89.0541 26.2349 91.1227 22.6536 89.3733C22.2133 89.1582 21.7308 88.3484 22.8965 87.7156C25.8009 86.139 29.9863 83.3796 30.5518 82.4714C31.323 81.2328 33.0217 74.5778 35.6479 62.5063Z" fill="#FF9E00"/>
<path fill-rule="evenodd" clip-rule="evenodd" d="M59.0901 35.1038L62.5035 34.6403C68.3801 46.2622 78.6402 56.8222 93.2836 66.3203L82.2183 76.9629C67.5766 63.4389 58.5514 49.4859 59.0901 35.1038Z" fill="#191847"/>
<path fill-rule="evenodd" clip-rule="evenodd" d="M44.2105 69.0625H74.6053C67.5635 55.5079 64.0426 43.9934 64.0426 34.519L54.874 33.4375C47.6684 42.612 45.6335 53.9077 44.2105 69.0625Z" fill="#DDE3E9"/>
<path fill-rule="evenodd" clip-rule="evenodd" d="M54.6799 33.4426C54.6811 33.4409 54.6823 33.4392 54.6835 33.4375L55.282 33.4375C55.9982 33.457 57.0889 33.4922 58.5543 33.543L60.7698 38.5553C61.0042 44.6664 62.3727 56.9819 64.8755 75.5019H44.9511C45.0033 76.781 45.0894 78.072 45.2095 79.375H30.3947C32.6108 59.5825 40.7034 44.27 54.6726 33.4375L54.6799 33.4426Z" fill="#2F3676"/>
<path fill-rule="evenodd" clip-rule="evenodd" d="M46.2672 59.1354C46.8342 67.1087 48.254 72.6053 50.5263 75.625H44.9562C44.7124 69.8884 45.1494 64.3919 46.2672 59.1354Z" fill="black" fill-opacity="0.1"/>
<path fill-rule="evenodd" clip-rule="evenodd" d="M49.3859 65.9375L59.2105 62.3217V65.9375H49.3859Z" fill="white" fill-opacity="0.2"/>
</svg>
