<svg width="400" height="400" viewBox="0 0 400 400" fill="none" xmlns="http://www.w3.org/2000/svg">
<path fill-rule="evenodd" clip-rule="evenodd" d="M151.855 75.4085C147.005 70.9012 143.722 65.3775 144.27 59.188C145.851 41.3542 177.209 45.2774 183.309 54.2784C189.409 63.2793 188.684 86.1109 180.8 87.7196C177.656 88.3612 170.959 86.7896 164.142 83.537L168.421 107.5H143.158L151.855 75.4085Z" fill="#FF8500"/>
<path fill-rule="evenodd" clip-rule="evenodd" d="M168.909 43.9044C165.58 43.4721 156.615 43.1749 154.961 43.1751C153.905 43.1751 152.76 43.3662 152.134 42.5982C151.622 41.9693 151.809 40.9056 151.656 40.1757C151.479 39.3279 151.227 38.491 150.971 37.6562C150.245 35.2807 149.148 33.0208 147.611 30.899C144.729 26.9182 140.506 23.8001 135.176 21.9856C129.289 19.9822 122.627 19.5235 116.295 19.9298C109.519 20.3646 103.385 22.1355 96.9873 23.802C90.8906 25.3901 84.5048 26.0151 78.1283 25.2396C71.7037 24.4584 66.8493 21.7017 61.4302 19.0853C55.8826 16.4067 49.5428 14.6548 42.9846 15.0575C36.8627 15.4335 31.2204 17.4347 26.1582 20.1079C21.422 22.609 17.514 25.6182 15.3076 29.8533C12.934 34.4091 12.9362 39.4098 16.8394 43.436C22.4969 49.2721 32.9999 50.7813 41.7379 50.6313C46.7921 50.5447 51.756 49.8143 56.5277 48.4857C62.8915 46.7136 68.3907 43.7102 74.3442 41.2734C77.1382 40.1299 80.0261 39.1907 83.0533 38.5142C85.9907 37.8575 88.884 37.5562 91.5436 38.9611C94.3572 40.4472 96.8784 41.9071 100.097 42.8374C103.185 43.73 106.455 44.2292 109.745 44.2091C116.146 44.1699 122.456 42.5911 128.672 41.5335C133.742 40.6713 139.166 39.812 144.334 40.6408C146.491 40.9867 149.641 41.7008 150.42 43.4752C137.31 45.3562 132.161 58.1918 135.857 67.6143C137.851 72.7 149.842 78.6452 154.504 75.9715C157.458 74.2777 155.664 72.054 154.504 70.5861C152.282 67.7749 151.521 64.1639 155.634 62.2067C159.181 60.5187 162.91 64.5273 162.981 64.5229C163.955 64.462 172.379 60.6905 178.183 55.1868C183.909 55.4555 184.778 52.4667 183.41 50.0224C182.043 47.5782 173.51 44.502 168.909 43.9044Z" fill="#0096C7"/>
<path fill-rule="evenodd" clip-rule="evenodd" d="M141.053 176.667L192.718 280.189L227.369 367.709H241.053L188.078 176.667L141.053 176.667Z" fill="#FF8500"/>
<path fill-rule="evenodd" clip-rule="evenodd" d="M130.649 176.667C130.099 213.045 122.076 262.023 120.794 264.291C119.939 265.802 90.4381 285.027 32.2904 321.965L41.7148 329.949C110.324 298.28 146.216 280.333 149.39 276.109C154.153 269.773 169.657 211.469 182.105 176.667H130.649Z" fill="#FF8500"/>
<path fill-rule="evenodd" clip-rule="evenodd" d="M30.7165 319.211C27.6092 320.041 25.4744 320.842 24.312 321.612C22.8983 322.548 21.0409 324.109 18.74 326.292C20.1721 327.64 33.0429 339.751 57.3523 362.625C62.1545 361.052 63.6261 359.148 61.7672 356.913C59.9082 354.679 58.3859 352.808 57.2 351.3L48.4156 328.344C48.2466 327.902 47.6642 327.639 47.1148 327.756C47.1054 327.758 47.096 327.76 47.0867 327.762L42.7285 328.8C39.6579 327.625 37.497 326.449 36.2457 325.272C35.2292 324.315 34.2954 322.683 33.4445 320.374C33.118 319.488 31.9597 318.953 30.8574 319.178C30.8099 319.187 30.7629 319.198 30.7165 319.211Z" fill="#E4E4E4"/>
<path fill-rule="evenodd" clip-rule="evenodd" d="M221.766 363.668C220.589 366.157 220 368.019 220 369.255C220 370.758 220.316 372.95 220.949 375.833C223.151 375.833 242.941 375.833 280.319 375.833C281.862 371.796 280.971 369.616 277.647 369.294C274.323 368.972 271.562 368.681 269.363 368.422L241.768 358.683C241.237 358.495 240.615 358.684 240.378 359.104C240.374 359.112 240.37 359.119 240.367 359.126L238.593 362.532C235.516 363.669 233.015 364.237 231.091 364.237C229.528 364.237 227.369 363.738 224.615 362.738C223.558 362.354 222.309 362.722 221.824 363.559C221.803 363.595 221.784 363.631 221.766 363.668Z" fill="#E4E4E4"/>
<path fill-rule="evenodd" clip-rule="evenodd" d="M175.789 358.694L240.847 353.105L192.632 176.667H134.362L175.789 358.694Z" fill="#69A1AC"/>
<path fill-rule="evenodd" clip-rule="evenodd" d="M45.7473 309.084L88.421 349.072C133.368 310.208 159.573 284.85 167.034 272.997C174.496 261.143 181.203 229.033 187.157 176.667H121.556C118.304 222.737 116.112 246.844 114.979 248.987C113.847 251.131 90.7699 271.163 45.7473 309.084Z" fill="#89C5CC"/>
<path fill-rule="evenodd" clip-rule="evenodd" d="M227.415 163.436L257.234 186.465C265.91 189.395 273.019 192.63 278.561 196.17C279.807 197.36 281.164 199.64 275.3 198.62C269.437 197.6 263.211 196.735 262.109 198.245C261.007 199.754 264.255 202.068 262.218 204.043C260.86 205.36 256.294 201.171 248.519 191.475L217.511 177.002L227.415 163.436ZM95.061 166.683L117.058 166.752C103.476 201.463 96.1435 219.881 95.061 222.005C92.6253 226.784 97.7796 234.062 99.9838 237.973C92.8048 240.516 93.5697 231.098 84.5136 234.433C76.2476 237.477 69.9597 242.994 60.4095 238.329C59.2354 237.755 57.9487 235.596 61.0575 233.908C68.8025 229.704 79.9635 222.346 81.4715 219.924C83.528 216.621 88.0578 198.874 95.061 166.683Z" fill="#FF8500"/>
<path fill-rule="evenodd" clip-rule="evenodd" d="M157.574 93.61L166.676 92.3741C182.347 123.366 209.707 151.526 248.756 176.854L219.249 205.235C180.204 169.171 156.137 131.962 157.574 93.61Z" fill="#191847"/>
<path fill-rule="evenodd" clip-rule="evenodd" d="M117.895 184.167H198.947C180.169 148.021 170.78 117.316 170.78 92.0507L146.331 89.1667C127.116 113.632 121.689 143.754 117.895 184.167Z" fill="#DDE3E9"/>
<path fill-rule="evenodd" clip-rule="evenodd" d="M145.813 89.1804C145.816 89.1759 145.82 89.1713 145.823 89.1667L147.419 89.1667C149.328 89.2188 152.237 89.3126 156.145 89.4481L162.053 102.814C162.678 119.11 166.327 151.952 173.001 201.338H119.87C120.009 204.749 120.239 208.192 120.559 211.667H81.0527C86.9621 158.887 108.542 118.053 145.794 89.1667L145.813 89.1804Z" fill="#2F3676"/>
<path fill-rule="evenodd" clip-rule="evenodd" d="M123.379 157.694C124.891 178.957 128.677 193.614 134.737 201.667H119.883C119.233 186.369 120.398 171.712 123.379 157.694Z" fill="black" fill-opacity="0.1"/>
<path fill-rule="evenodd" clip-rule="evenodd" d="M131.696 175.833L157.895 166.191V175.833H131.696Z" fill="white" fill-opacity="0.2"/>
</svg>
