<svg width="150" height="150" viewBox="0 0 150 150" fill="none" xmlns="http://www.w3.org/2000/svg">
<path fill-rule="evenodd" clip-rule="evenodd" d="M56.9456 28.2782C55.1267 26.5879 53.8956 24.5165 54.1014 22.1955C54.6941 15.5078 66.4534 16.979 68.7408 20.3544C71.0282 23.7297 70.7564 32.2916 67.8001 32.8948C66.6211 33.1354 64.1096 32.5461 61.5534 31.3263L63.1579 40.3125H53.6842L56.9456 28.2782Z" fill="#FF9E00"/>
<path fill-rule="evenodd" clip-rule="evenodd" d="M41.0351 20.8882C42.0715 19.0711 43.4042 16.7393 44.6097 14.3474C45.4741 12.6323 46.3937 10.4359 47.3684 7.75837H48.5416C46.6934 11.9282 45.3033 14.8401 44.3711 16.4941C42.8716 19.1547 41.7941 21.1752 40.9358 22.5313C42.3738 20.8625 44.5854 18.1404 46.9432 14.4798C47.8371 13.0919 48.8895 10.9668 50.1003 8.10457L51.1922 8.47435C49.359 12.0971 47.9427 14.6234 46.9432 16.0534C43.6852 20.7143 40.5743 23.5265 39.4869 24.3246C39.2988 24.4627 39.2359 24.4949 39.281 24.4243C39.266 24.4224 39.2551 24.4153 39.2479 24.4031C39.1714 24.4946 39.0953 24.5749 39.0192 24.6439C37.9226 25.6367 40.7284 20.1021 42.7965 14.2974C43.4297 12.5201 44.0543 10.2597 44.6701 7.51615L45.8369 7.41907C44.5494 11.7189 43.5513 14.7299 42.8426 16.452C42.124 18.1982 41.5387 19.6775 41.0351 20.8882Z" fill="black" fill-opacity="0.2"/>
<path fill-rule="evenodd" clip-rule="evenodd" d="M52.8948 66.25L72.2691 105.071L85.2636 137.891H90.3948L70.5291 66.25L52.8948 66.25Z" fill="#FF9E00"/>
<path fill-rule="evenodd" clip-rule="evenodd" d="M48.9934 66.25C48.7871 79.8919 45.7784 98.2586 45.2977 99.109C44.9772 99.6759 33.9143 106.885 12.1089 120.737L15.6431 123.731C41.3714 111.855 54.8308 105.125 56.0214 103.541C57.8073 101.165 63.6215 79.301 68.2895 66.25H48.9934Z" fill="#FF9E00"/>
<path fill-rule="evenodd" clip-rule="evenodd" d="M11.5187 119.704C10.3535 120.015 9.55296 120.316 9.11706 120.604C8.58691 120.956 7.8904 121.541 7.02755 122.36C7.5646 122.865 12.3911 127.406 21.5072 135.984C23.308 135.394 23.8598 134.681 23.1627 133.842C22.4656 133.004 21.8948 132.303 21.4501 131.738L18.1559 123.129C18.0925 122.963 17.8741 122.864 17.6681 122.908C17.6646 122.909 17.6611 122.91 17.6576 122.911L16.0232 123.3C14.8718 122.859 14.0614 122.418 13.5922 121.977C13.211 121.618 12.8608 121.006 12.5417 120.14C12.4193 119.808 11.9849 119.607 11.5716 119.692C11.5537 119.695 11.5361 119.699 11.5187 119.704Z" fill="#E4E4E4"/>
<path fill-rule="evenodd" clip-rule="evenodd" d="M83.1624 136.376C82.7208 137.309 82.5 138.007 82.5 138.471C82.5 139.034 82.6186 139.856 82.8558 140.938C83.6815 140.938 91.1028 140.938 105.12 140.938C105.698 139.423 105.364 138.606 104.118 138.485C102.871 138.364 101.836 138.255 101.011 138.158L90.6632 134.506C90.464 134.436 90.2307 134.506 90.1419 134.664C90.1404 134.667 90.1389 134.67 90.1375 134.672L89.4723 135.95C88.3184 136.376 87.3807 136.589 86.6592 136.589C86.0731 136.589 85.2635 136.402 84.2307 136.027C83.8344 135.883 83.3658 136.021 83.1841 136.334C83.1762 136.348 83.169 136.362 83.1624 136.376Z" fill="#E4E4E4"/>
<path fill-rule="evenodd" clip-rule="evenodd" d="M65.921 134.51L90.3175 132.414L72.2368 66.25H50.3858L65.921 134.51Z" fill="#69A1AC"/>
<path fill-rule="evenodd" clip-rule="evenodd" d="M17.1553 115.906L33.1579 130.902C50.0132 116.328 59.8398 106.819 62.6379 102.374C65.4359 97.9287 67.9512 85.8875 70.1838 66.25H45.5835C44.364 83.5262 43.5419 92.5663 43.1173 93.3702C42.6928 94.1742 34.0387 101.686 17.1553 115.906Z" fill="#89C5CC"/>
<path fill-rule="evenodd" clip-rule="evenodd" d="M83.8258 61.1281L95.7416 69.1255C99.0841 70.0419 101.85 71.1049 104.04 72.3145C104.546 72.7339 105.129 73.5588 102.902 73.2985C100.674 73.0383 98.317 72.8438 97.9547 73.4313C97.5923 74.0188 98.8835 74.8169 98.1868 75.5982C97.7224 76.119 95.8758 74.6464 92.647 71.1802L80.5692 66.4083L83.8258 61.1281ZM29.8686 57.6675L36.8601 58.4713C29.3553 71.3618 25.3319 78.179 24.7899 78.923C23.5704 80.597 25.0046 83.5126 25.5653 85.0561C22.7318 85.7039 23.6367 82.238 20.0538 83.1024C16.7835 83.8915 14.0849 85.6802 10.8459 83.5532C10.4477 83.2917 10.1123 82.4366 11.378 81.9384C14.5312 80.6971 19.161 78.4258 19.8807 77.5887C20.8621 76.4471 24.1914 69.8067 29.8686 57.6675Z" fill="#FF9E00"/>
<path fill-rule="evenodd" clip-rule="evenodd" d="M59.0901 35.1038L63.4223 33.9696C69.299 45.5915 78.0633 56.8364 92.7067 66.3344L89.0856 71.2803C76.2161 65.2786 64.0336 60.6165 59.0901 51.6108C57.4309 48.5883 58.9547 38.7178 59.0901 35.1038Z" fill="#C5CFD6"/>
<path fill-rule="evenodd" clip-rule="evenodd" d="M44.2105 67.8125C56.6204 68.8542 66.3883 68.8542 73.5143 67.8125C74.3971 67.6835 74.5364 66.5133 74.127 65.7191C67.7512 53.3514 63.379 42.5599 63.379 33.9696C62.2092 34.4365 60.1618 34.5065 57.2368 34.1795C49.3761 43.0321 45.7628 53.1895 44.2105 67.8125Z" fill="#323337"/>
<path fill-rule="evenodd" clip-rule="evenodd" d="M55.2826 33.4375H58.5586C59.3213 36.989 61.7271 85.082 69.1541 100.814H28.9679C29.8391 86.4022 36.7116 69.0898 43.6736 54.6026C37.5175 59.0623 32.152 66.619 27.577 77.2727L20.0497 75.743C25.6465 56.6503 37.1536 42.6171 54.5709 33.6434C54.6086 33.5744 54.6461 33.5058 54.6835 33.4375H54.9734C55.0801 33.3833 55.187 33.3292 55.2942 33.2754L55.2826 33.4375Z" fill="#DDE3E9"/>
</svg>
