<svg width="350" height="350" viewBox="0 0 350 350" fill="none" xmlns="http://www.w3.org/2000/svg">
<path fill-rule="evenodd" clip-rule="evenodd" d="M132.873 65.9825C128.629 62.0387 125.756 57.2054 126.236 51.7896C127.619 36.185 155.058 39.6178 160.395 47.4937C165.732 55.3695 165.098 75.3471 158.2 76.7548C155.449 77.3161 149.589 75.941 143.625 73.095L147.368 94.0627H125.263L132.873 65.9825Z" fill="#03045E"/>
<path fill-rule="evenodd" clip-rule="evenodd" d="M155.414 42.3002C154.907 42.061 153.848 41.5563 153.311 41.3734C153.184 41.3294 152.295 40.8272 152.271 40.8336C151.598 41.0134 149.649 41.6772 149.481 42.2509C149.455 42.2944 149.43 42.3351 149.405 42.3708C149.129 42.7683 148.875 43.1758 148.634 43.5882C148.103 44.4935 147.645 45.4396 147.207 46.3783C146.355 48.2065 145.615 50.0773 144.935 51.9523C144.242 53.861 143.654 55.7921 142.995 57.7087C142.048 60.4666 140.836 63.1569 139.895 65.9137C139.294 67.674 138.96 69.4549 139.118 71.2666C139.119 71.2884 139.12 71.3099 139.123 71.332C139.124 71.3411 139.125 71.35 139.126 71.3591C139.153 71.6376 139.191 71.9168 139.242 72.1968C139.287 72.4362 139.332 72.6766 139.379 72.9168C140.239 71.5603 140.895 70.0655 141.591 68.6468C141.659 68.5079 141.724 68.368 141.787 68.2277C142.012 67.94 142.241 67.6543 142.472 67.3697C143.932 65.5753 145.397 63.7874 146.797 61.9604C149.314 58.6745 151.808 55.3192 154.793 52.3018C155.674 51.4107 156.576 50.5334 157.446 49.6351C157.942 49.1239 158.424 48.6041 158.891 48.0751C159.224 47.6968 160.675 46.3783 160.15 45.5861C159.881 45.1808 156.727 42.9209 155.414 42.3002Z" fill="#2C2C2C"/>
<path fill-rule="evenodd" clip-rule="evenodd" d="M153.471 41.4395C153.964 41.5705 153.724 40.7593 153.247 40.4739C151.038 39.1515 142.591 38.6716 135.24 39.8796C130.315 40.6889 124.588 42.7032 120.655 45.2926C117.109 47.6271 114.671 51.3693 113.415 54.9849C112.097 58.7813 111.897 62.7393 112.632 66.6324C112.793 67.4875 113.14 68.3024 113.333 69.1394C113.55 70.082 113.662 70.9895 114.05 71.9066C114.287 72.468 114.691 73.0184 114.893 73.583C115.125 74.2273 114.984 74.8233 114.815 75.4786C114.54 76.5467 114.199 77.6126 113.715 78.6327C112.988 80.1645 112.105 81.5992 111.552 83.1887C110.815 85.3038 107.736 92.1866 109.986 94.0626H152.832C151.754 91.7328 148.515 88.9907 147.859 86.4967C147.473 85.0274 147.29 81.8189 147.249 81.7023C146.284 76.4331 144.398 73.9168 143.218 73.0036C142.037 72.0904 140.464 71.8096 140.383 71.0175C140.048 67.7414 141.694 64.6024 142.9 61.5448C144.338 57.9007 145.392 54.1662 146.875 50.5345C147.532 48.9263 150.915 40.7593 153.471 41.4395Z" fill="#8991DC"/>
<path fill-rule="evenodd" clip-rule="evenodd" d="M138.449 45.2085C136.833 49.267 136.486 51.4334 136.833 56.9788H136.041C134.56 51.7456 135.878 46.8192 137.453 45.2085H138.449ZM116.773 55.6825C119.784 61.4663 121.157 64.8817 129.565 69.562L128.915 69.9219C120.569 66.177 118.138 61.71 116.14 55.9234L116.773 55.6825ZM129.144 49.7966C130.511 58.0061 130.911 62.6954 138.035 71.6755L137.277 71.859C129.945 64.0401 128.783 57.6584 128.436 49.8417L129.144 49.7966ZM121.274 74.1829L121.923 73.5588C130.772 75.753 129.786 80.2831 140.931 84.8709L140 85.3176C130.241 82.1292 127.96 75.2905 121.274 74.1829Z" fill="black" fill-opacity="0.2"/>
<path fill-rule="evenodd" clip-rule="evenodd" d="M123.421 154.583L168.628 245.165L198.948 321.745H210.921L164.568 154.583L123.421 154.583Z" fill="#03045E"/>
<path fill-rule="evenodd" clip-rule="evenodd" d="M114.318 154.583C113.837 186.414 106.816 229.27 105.695 231.254C104.947 232.577 79.1333 249.399 28.2541 281.719L36.5005 288.705C96.5332 260.994 127.939 245.291 130.717 241.595C134.884 236.051 148.45 185.036 159.342 154.583H114.318Z" fill="#03045E"/>
<path fill-rule="evenodd" clip-rule="evenodd" d="M26.877 279.309C24.1582 280.036 22.2902 280.736 21.2731 281.41C20.0361 282.23 18.4109 283.595 16.3976 285.506C17.6507 286.685 28.9126 297.282 50.1834 317.296C54.3853 315.92 55.6729 314.255 54.0464 312.299C52.4198 310.344 51.0877 308.706 50.0501 307.388L42.3638 287.3C42.2159 286.914 41.7062 286.684 41.2255 286.786C41.2173 286.788 41.2091 286.79 41.2009 286.792L37.3875 287.7C34.7007 286.672 32.8099 285.643 31.7151 284.613C30.8256 283.776 30.0086 282.347 29.264 280.327C28.9783 279.552 27.9648 279.083 27.0003 279.28C26.9587 279.289 26.9176 279.298 26.877 279.309Z" fill="#E4E4E4"/>
<path fill-rule="evenodd" clip-rule="evenodd" d="M194.046 318.21C193.015 320.387 192.5 322.017 192.5 323.098C192.5 324.413 192.777 326.331 193.33 328.854C195.257 328.854 212.573 328.854 245.279 328.854C246.629 325.321 245.85 323.413 242.941 323.132C240.033 322.85 237.617 322.596 235.693 322.369L211.547 313.847C211.083 313.683 210.538 313.848 210.331 314.216C210.328 314.222 210.324 314.229 210.321 314.235L208.769 317.216C206.076 318.21 203.888 318.707 202.205 318.707C200.837 318.707 198.948 318.27 196.538 317.396C195.614 317.06 194.52 317.381 194.096 318.114C194.078 318.145 194.061 318.177 194.046 318.21Z" fill="#E4E4E4"/>
<path fill-rule="evenodd" clip-rule="evenodd" d="M153.816 313.857L210.741 308.966L168.553 154.583H117.567L153.816 313.857Z" fill="#69A1AC"/>
<path fill-rule="evenodd" clip-rule="evenodd" d="M40.0289 270.448L77.3684 305.438C116.697 271.432 139.626 249.244 146.155 238.872C152.684 228.5 158.553 200.404 163.762 154.583H106.361C103.516 194.894 101.598 215.988 100.607 217.864C99.6164 219.74 79.4237 237.268 40.0289 270.448Z" fill="#89C5CC"/>
<path fill-rule="evenodd" clip-rule="evenodd" d="M166.377 109.156L198.347 95.2945C203.663 90.2966 208.901 86.415 214.061 83.6497C215.638 83.1286 218.395 82.8132 215.816 86.4364C213.238 90.0595 210.731 93.9623 212.045 95.0785C213.359 96.1947 216.634 94.6354 218.202 96.49C219.246 97.7264 213.65 99.6796 201.413 102.349L178.183 119.188L166.377 109.156ZM216.447 120.852L230.49 114.745C232.461 108.809 234.816 105.823 237.556 105.785C239.662 105.01 235.995 112.51 239.986 111.86C243.977 111.209 253.717 105.474 255.395 106.639C257.878 108.361 255.664 113.651 253.056 116.282C248.181 121.2 244.144 122.882 234.167 125.084C228.95 126.236 223.31 128.544 217.247 132.008L216.447 120.852Z" fill="#03045E"/>
<path fill-rule="evenodd" clip-rule="evenodd" d="M150.808 106.069C162.005 105.975 176.938 104.103 192.871 96.096L199.128 107.143C188.138 115.777 172.685 122.872 159.173 122.571C148.525 122.334 143.082 112.138 150.808 106.069Z" fill="#2026A2"/>
<path fill-rule="evenodd" clip-rule="evenodd" d="M165.885 123.784C177.773 126.131 197.708 123.363 225.691 115.481C232.632 126.848 235.84 134.953 235.317 139.794C211.312 149.72 190.738 154.146 173.787 154.439C174.326 162.401 173.102 169.977 168.989 176.9C160.535 191.132 111.028 177.952 94.3828 180.546C83.9589 153.746 104.114 142.854 104.13 125.706C104.148 106.926 123.195 78.0208 125.997 78.0208L151.553 78.0208C152.964 92.3627 160.061 108.169 165.885 123.784Z" fill="#1F28CF"/>
</svg>
