<svg width="150" height="150" viewBox="0 0 150 150" fill="none" xmlns="http://www.w3.org/2000/svg">
<path fill-rule="evenodd" clip-rule="evenodd" d="M56.9457 28.2782C55.1268 26.5879 53.8957 24.5165 54.1014 22.1955C54.6941 15.5078 66.4534 16.979 68.7408 20.3544C71.0283 23.7297 70.7565 32.2916 67.8002 32.8948C66.6212 33.1354 64.1097 32.5461 61.5535 31.3263L63.1579 40.3125H53.6843L56.9457 28.2782Z" fill="#0096C7"/>
<path fill-rule="evenodd" clip-rule="evenodd" d="M62.0271 22.9339C62.3898 26.933 63.349 28.9326 64.905 28.9326C67.239 28.9326 69.2192 27.7596 70.2433 27.7596C70.9898 27.7596 70.8232 28.4992 70.3283 29.0475C69.92 29.4999 67.9318 29.936 67.9318 30.6374C67.9318 31.3388 69.5027 30.7962 69.5027 31.2121C69.5027 31.9002 69.7788 33.1939 68.2703 33.1939C66.7436 33.1939 62.3664 32.7535 61.6163 30.9597C61.1321 29.8021 60.8191 27.4032 60.6772 23.7631C60.5846 23.7544 60.4903 23.7499 60.3948 23.7499C59.0867 23.7499 58.0264 24.5894 58.0264 25.6249C58.0264 26.1506 58.2996 26.6257 58.7398 26.9662C58.1918 27.5786 57.5776 28.2183 56.8739 28.8784C54.2299 27.6226 52.268 23.9464 54.8529 20.415C55.5673 18.685 57.1848 17.7609 59.095 17.3318C60.6424 16.8194 62.2488 16.7616 63.6048 17.0688C66.2629 17.2493 68.6365 17.891 69.3092 18.2721C69.3092 20.2643 68.8216 20.8554 64.6567 20.8033C63.6333 21.2312 62.8466 21.968 62.0271 22.9339Z" fill="#FF5400"/>
<path fill-rule="evenodd" clip-rule="evenodd" d="M52.8948 66.25L72.2691 105.071L85.2636 137.891H90.3948L70.5291 66.25L52.8948 66.25Z" fill="#0096C7"/>
<path fill-rule="evenodd" clip-rule="evenodd" d="M48.9934 66.25C48.7871 79.8919 45.7784 98.2586 45.2977 99.109C44.9772 99.6759 33.9143 106.885 12.1089 120.737L15.6431 123.731C41.3714 111.855 54.8308 105.125 56.0214 103.541C57.8073 101.165 63.6215 79.301 68.2895 66.25H48.9934Z" fill="#0096C7"/>
<path fill-rule="evenodd" clip-rule="evenodd" d="M11.5187 119.704C10.3535 120.016 9.55296 120.316 9.11706 120.604C8.58691 120.956 7.8904 121.541 7.02755 122.36C7.5646 122.865 12.3911 127.407 21.5072 135.984C23.308 135.395 23.8598 134.681 23.1627 133.843C22.4656 133.005 21.8948 132.303 21.4501 131.738L18.1559 123.129C18.0925 122.963 17.8741 122.865 17.6681 122.908C17.6646 122.909 17.6611 122.91 17.6576 122.911L16.0232 123.3C14.8718 122.859 14.0614 122.418 13.5922 121.977C13.211 121.618 12.8608 121.006 12.5417 120.14C12.4193 119.808 11.9849 119.607 11.5716 119.692C11.5537 119.695 11.5361 119.699 11.5187 119.704Z" fill="#E4E4E4"/>
<path fill-rule="evenodd" clip-rule="evenodd" d="M83.1624 136.376C82.7208 137.309 82.5 138.007 82.5 138.471C82.5 139.034 82.6186 139.856 82.8558 140.938C83.6815 140.938 91.1028 140.938 105.12 140.938C105.698 139.423 105.364 138.606 104.118 138.485C102.871 138.364 101.836 138.255 101.011 138.158L90.6632 134.506C90.464 134.436 90.2307 134.506 90.1419 134.664C90.1404 134.667 90.1389 134.67 90.1375 134.672L89.4723 135.95C88.3184 136.376 87.3807 136.589 86.6592 136.589C86.0731 136.589 85.2635 136.402 84.2307 136.027C83.8344 135.883 83.3658 136.021 83.1841 136.334C83.1762 136.348 83.169 136.362 83.1624 136.376Z" fill="#E4E4E4"/>
<path fill-rule="evenodd" clip-rule="evenodd" d="M65.921 134.51L90.3175 132.414L72.2368 66.25H50.3858L65.921 134.51Z" fill="#69A1AC"/>
<path fill-rule="evenodd" clip-rule="evenodd" d="M17.1553 115.906L33.1579 130.902C50.0132 116.328 59.8398 106.819 62.6379 102.374C65.4359 97.9287 67.9512 85.8875 70.1838 66.25H45.5835C44.364 83.5262 43.5419 92.5663 43.1173 93.3702C42.6928 94.1742 34.0387 101.686 17.1553 115.906Z" fill="#89C5CC"/>
<path fill-rule="evenodd" clip-rule="evenodd" d="M83.9926 62.2537L96.584 69.5735C99.999 70.3031 102.852 71.2107 105.143 72.2965C105.685 72.6869 106.339 73.4776 104.094 73.341C101.85 73.2043 99.4808 73.1405 99.171 73.7466C98.8613 74.3527 100.22 75.0776 99.5936 75.8954C99.1762 76.4406 97.2043 75.0735 93.6779 71.7942L81.2091 67.7008L83.9926 62.2537ZM35.6479 62.5063L43.8968 62.532C38.8035 75.5487 36.0538 82.4554 35.6479 83.2518C34.7345 85.0439 36.6673 87.7731 37.4939 89.2398C34.8018 90.1935 35.0886 86.6616 31.6926 87.9124C28.5928 89.0541 26.2349 91.1227 22.6536 89.3733C22.2132 89.1582 21.7308 88.3484 22.8965 87.7156C25.8009 86.139 29.9863 83.3797 30.5518 82.4714C31.323 81.2328 33.0217 74.5778 35.6479 62.5063Z" fill="#0096C7"/>
<path fill-rule="evenodd" clip-rule="evenodd" d="M59.0901 35.1038L62.5034 34.6403C75.1679 43.3013 80.3697 59.9403 95.8932 68.7546L92.1568 72.4211C65.2263 69.7814 58.5514 49.4859 59.0901 35.1038Z" fill="#E87613"/>
<path fill-rule="evenodd" clip-rule="evenodd" d="M44.2105 69.0625C57.8967 69.0625 67.964 69.0625 74.4124 69.0625C75.7925 69.0625 75.5324 67.4849 75.3329 66.6888C73.0305 57.5012 64.0426 47.5973 64.0426 34.519L55.331 33.4375C48.1253 42.612 45.6335 53.9077 44.2105 69.0625Z" fill="#DDE3E9"/>
<path fill-rule="evenodd" clip-rule="evenodd" d="M44.4532 42.4556C43.188 42.1677 42.186 41.4961 41.4474 40.441C38.2632 35.8925 39.4132 33.3882 42.816 32.5651C46.2188 31.7419 49.2534 33.4375 54.675 33.4375C54.9699 33.4375 55.24 33.4521 55.4853 33.4814L58.2125 33.6046C66.0371 54.5985 68.1951 68.6053 64.6864 75.625H40.9152C39.5068 78.225 38.159 80.4125 36.872 82.1875H30.3947C29.7851 66.5835 34.4713 53.3395 44.4532 42.4556Z" fill="#FF9B21"/>
<path fill-rule="evenodd" clip-rule="evenodd" d="M46.0915 64.843C46.8391 69.795 48.0542 73.389 49.7368 75.625H40.9152C42.558 72.5922 44.2835 68.9982 46.0915 64.843Z" fill="black" fill-opacity="0.1"/>
</svg>
