<svg width="150" height="150" viewBox="0 0 150 150" fill="none" xmlns="http://www.w3.org/2000/svg">
<path fill-rule="evenodd" clip-rule="evenodd" d="M56.9456 28.2782C55.1267 26.5879 53.8956 24.5165 54.1014 22.1955C54.6941 15.5078 66.4534 16.979 68.7408 20.3544C71.0282 23.7297 70.7564 32.2916 67.8001 32.8948C66.6211 33.1354 64.1096 32.5461 61.5534 31.3263L63.1579 40.3125H53.6842L56.9456 28.2782Z" fill="#FF9E00"/>
<path fill-rule="evenodd" clip-rule="evenodd" d="M56.2177 29.7836C55.0287 25.5958 51.6413 22.7411 52.1586 20.8693C52.5035 19.6214 53.4227 18.8454 54.9163 18.5413C55.6888 16.0673 58.1801 15.0151 62.3904 15.3845C68.7058 15.9386 72.5603 18.0149 70.8957 22.5837C69.3656 22.5837 67.5184 22.1456 64.964 22.8962C64.1536 23.1344 63.5739 23.8729 63.225 25.1119H62.0707C60.9504 23.6416 59.8458 23.1013 58.7569 23.491C57.668 23.8807 57.4204 24.8273 58.0143 26.3308L57.4457 29.7836H56.2177Z" fill="#0077B6"/>
<path fill-rule="evenodd" clip-rule="evenodd" d="M52.8948 66.25L72.2691 105.071L85.2636 137.891H90.3948L70.5291 66.25L52.8948 66.25Z" fill="#FF9E00"/>
<path fill-rule="evenodd" clip-rule="evenodd" d="M48.9934 66.25C48.7871 79.8919 45.7784 98.2586 45.2977 99.109C44.9772 99.6759 33.9143 106.885 12.1089 120.737L15.6431 123.731C41.3714 111.855 54.8308 105.125 56.0214 103.541C57.8073 101.165 63.6215 79.301 68.2895 66.25H48.9934Z" fill="#FF9E00"/>
<path fill-rule="evenodd" clip-rule="evenodd" d="M11.5187 119.704C10.3535 120.015 9.55296 120.316 9.11706 120.604C8.58691 120.956 7.8904 121.541 7.02755 122.36C7.5646 122.865 12.3911 127.406 21.5072 135.984C23.308 135.394 23.8598 134.681 23.1627 133.842C22.4656 133.004 21.8948 132.303 21.4501 131.738L18.1559 123.129C18.0925 122.963 17.8741 122.864 17.6681 122.908C17.6646 122.909 17.6611 122.91 17.6576 122.911L16.0232 123.3C14.8718 122.859 14.0614 122.418 13.5922 121.977C13.211 121.618 12.8608 121.006 12.5417 120.14C12.4193 119.808 11.9849 119.607 11.5716 119.692C11.5537 119.695 11.5361 119.699 11.5187 119.704Z" fill="#E4E4E4"/>
<path fill-rule="evenodd" clip-rule="evenodd" d="M83.1624 136.376C82.7208 137.309 82.5 138.007 82.5 138.471C82.5 139.034 82.6186 139.856 82.8558 140.938C83.6815 140.938 91.1028 140.938 105.12 140.938C105.698 139.423 105.364 138.606 104.118 138.485C102.871 138.364 101.836 138.255 101.011 138.158L90.6632 134.506C90.464 134.436 90.2307 134.506 90.1419 134.664C90.1404 134.667 90.1389 134.67 90.1375 134.672L89.4723 135.95C88.3184 136.376 87.3807 136.589 86.6592 136.589C86.0731 136.589 85.2635 136.402 84.2307 136.027C83.8344 135.883 83.3658 136.021 83.1841 136.334C83.1762 136.348 83.169 136.362 83.1624 136.376Z" fill="#E4E4E4"/>
<path fill-rule="evenodd" clip-rule="evenodd" d="M65.921 134.51L90.3175 132.414L72.2368 66.25H50.3858L65.921 134.51Z" fill="#69A1AC"/>
<path fill-rule="evenodd" clip-rule="evenodd" d="M17.1553 115.906L33.1579 130.902C50.0132 116.328 59.8398 106.819 62.6379 102.374C65.4359 97.9287 67.9512 85.8875 70.1838 66.25H45.5835C44.364 83.5262 43.5419 92.5663 43.1173 93.3702C42.6928 94.1742 34.0387 101.686 17.1553 115.906Z" fill="#89C5CC"/>
<path fill-rule="evenodd" clip-rule="evenodd" d="M87.4315 62.3313L98.6136 70.9673C101.867 72.066 104.533 73.2791 106.611 74.6068C107.078 75.0531 107.587 75.9082 105.388 75.5255C103.19 75.1429 100.855 74.8187 100.442 75.3848C100.029 75.9509 101.246 76.8183 100.483 77.5592C99.9734 78.0531 98.261 76.4821 95.3454 72.8461L83.7175 67.4188L87.4315 62.3313ZM32.7512 54.5155L41.395 54.5412C34.8116 71.4267 31.317 80.2678 30.911 81.0642C29.9976 82.8563 31.9305 85.5855 32.7571 87.0522C30.065 88.0059 30.3518 84.474 26.9558 85.7248C23.856 86.8665 21.498 88.9351 17.9167 87.1857C17.4764 86.9706 16.9939 86.1608 18.1597 85.528C21.0641 83.9514 25.2495 81.1921 25.815 80.2838C26.5862 79.0452 28.8982 70.4558 32.7512 54.5155Z" fill="#FF9E00"/>
<path fill-rule="evenodd" clip-rule="evenodd" d="M59.0901 35.1038L62.5034 34.6403C67.8805 49.6877 95.5076 59.9447 97.2036 65.5698C97.8255 67.6327 95.9502 68.6755 96.9189 69.3038L92.4822 71.875C91.7309 71.181 90.1276 72.4505 86.7794 71.5625C83.4313 70.6746 59.0901 52.9212 59.0901 35.1038Z" fill="#DB2721"/>
<path fill-rule="evenodd" clip-rule="evenodd" d="M64.8319 37.1043C64.4384 57.026 78.9852 62.1077 75.745 70.0995C73.0693 76.6989 47.4582 83.7933 43.0263 77.3243C41.2324 74.7057 40.4185 71.5387 40.3261 68.0955C39.1934 70.7408 38.2976 73.0181 37.6386 74.9273C36.5018 78.2211 32.0946 78.7447 32.0946 80.0135L26.2882 78.7447C26.682 77.0208 23.9447 76.1814 24.6787 72.3303C27.9671 55.0749 36.8027 42.5669 51.1853 34.8065L51.3341 33.122C51.3949 32.4333 52.1495 31.914 53.0194 31.9622L63.6513 32.5508C64.5212 32.5989 65.1771 33.1962 65.1162 33.8849L64.8319 37.1043Z" fill="#FF4133"/>
</svg>
