<svg width="260" height="242" viewBox="0 0 260 242" fill="none" xmlns="http://www.w3.org/2000/svg">
<path fill-rule="evenodd" clip-rule="evenodd" d="M98.7057 45.6221C95.553 42.8952 93.4191 39.5533 93.7757 35.8087C94.803 25.0193 115.186 27.3928 119.151 32.8384C123.116 38.2839 122.644 52.0971 117.52 53.0703C115.477 53.4585 111.123 52.5077 106.693 50.5398L109.474 65.0375H93.0526L98.7057 45.6221Z" fill="#0096C7"/>
<path fill-rule="evenodd" clip-rule="evenodd" d="M64.6285 18.6542C65.8601 24.3914 69.0934 29.6386 74.3282 34.3958C68.2242 30.9059 64.2025 26.0262 62.2632 19.7565L64.6285 18.6542ZM61.5779 20.8433C63.5982 27.0073 68.8442 32.8317 77.3158 38.3167C67.5133 33.9568 61.3554 28.3304 58.8421 21.4377L61.5779 20.8433Z" fill="black" fill-opacity="0.2"/>
<path fill-rule="evenodd" clip-rule="evenodd" d="M91.6842 106.883L125.266 169.514L147.79 222.464H156.684L122.25 106.883L91.6842 106.883Z" fill="#0096C7"/>
<path fill-rule="evenodd" clip-rule="evenodd" d="M84.9219 106.883C84.5643 128.892 79.3492 158.524 78.516 159.896C77.9605 160.81 58.7848 172.441 20.9888 194.789L27.1147 199.619C71.7104 180.459 95.0402 169.601 97.1038 167.046C100.199 163.213 110.277 127.939 118.368 106.883H84.9219Z" fill="#0096C7"/>
<path fill-rule="evenodd" clip-rule="evenodd" d="M19.9061 193.107C17.8974 193.6 16.5185 194.078 15.7692 194.539C14.858 195.101 13.6623 196.038 12.1824 197.35C13.1164 198.167 21.5109 205.513 37.3659 219.387C40.4689 218.451 41.413 217.305 40.1983 215.951C38.9836 214.597 37.9886 213.463 37.2133 212.55L31.4139 198.668C31.3023 198.401 30.9238 198.24 30.5685 198.31C30.5624 198.311 30.5564 198.312 30.5504 198.313L27.7324 198.928C25.7379 198.211 24.3326 197.495 23.5165 196.781C22.8535 196.201 22.2409 195.213 21.6787 193.817C21.463 193.281 20.7102 192.955 19.9972 193.087C19.9665 193.093 19.9361 193.1 19.9061 193.107Z" fill="#E4E4E4"/>
<path fill-rule="evenodd" clip-rule="evenodd" d="M144.148 220.019C143.383 221.525 143 222.652 143 223.399C143 224.308 143.206 225.635 143.617 227.379C145.048 227.379 157.912 227.379 182.207 227.379C183.21 224.936 182.631 223.617 180.471 223.423C178.31 223.228 176.515 223.052 175.086 222.895L157.149 217.003C156.804 216.889 156.4 217.004 156.246 217.258C156.243 217.262 156.241 217.267 156.238 217.271L155.085 219.332C153.085 220.02 151.46 220.363 150.209 220.363C149.193 220.363 147.79 220.061 146 219.456C145.313 219.224 144.501 219.447 144.186 219.953C144.172 219.975 144.16 219.997 144.148 220.019Z" fill="#E4E4E4"/>
<path fill-rule="evenodd" clip-rule="evenodd" d="M114.263 217.01L156.55 213.628L125.211 106.883H87.3354L114.263 217.01Z" fill="#69A1AC"/>
<path fill-rule="evenodd" clip-rule="evenodd" d="M29.7358 186.996L57.4737 211.188C86.6895 187.676 103.722 172.334 108.572 165.163C113.422 157.992 117.782 138.565 121.652 106.883H79.0114C76.8975 134.756 75.4726 149.34 74.7367 150.637C74.0008 151.934 59.0005 164.054 29.7358 186.996Z" fill="#89C5CC"/>
<path fill-rule="evenodd" clip-rule="evenodd" d="M145.587 100.436L167.412 112.245C173.332 113.422 178.277 114.886 182.249 116.638C183.187 117.268 184.321 118.544 180.43 118.323C176.539 118.103 172.433 118 171.896 118.978C171.36 119.956 173.714 121.125 172.629 122.444C171.905 123.324 168.487 121.118 162.375 115.828L140.762 109.224L145.587 100.436ZM61.7896 100.843L76.0878 100.885C67.2593 121.885 62.4933 133.028 61.7896 134.313C60.2064 137.204 63.5567 141.607 64.9894 143.973C60.3231 145.512 60.8203 139.814 54.9338 141.832C49.5609 143.674 45.4738 147.011 39.2662 144.189C38.503 143.842 37.6666 142.535 39.6873 141.514C44.7216 138.971 51.9762 134.519 52.9565 133.054C54.2932 131.056 57.2375 120.319 61.7896 100.843Z" fill="#0096C7"/>
<path fill-rule="evenodd" clip-rule="evenodd" d="M102.423 56.6341L108.339 55.8863C130.291 69.8595 139.307 96.7037 166.215 110.924L159.739 116.839C113.059 112.581 101.489 79.8372 102.423 56.6341Z" fill="#E87613"/>
<path fill-rule="evenodd" clip-rule="evenodd" d="M76.6316 111.421C100.354 111.421 117.804 111.421 128.982 111.421C131.374 111.421 130.923 108.876 130.577 107.591C126.586 92.7686 111.007 76.7904 111.007 55.6906L95.907 53.9458C83.4172 68.7474 79.0981 86.971 76.6316 111.421Z" fill="#DDE3E9"/>
<path fill-rule="evenodd" clip-rule="evenodd" d="M77.0522 68.495C74.8591 68.0305 73.1224 66.9471 71.8421 65.2448C66.3229 57.9066 68.3161 53.8664 74.2144 52.5383C80.1126 51.2103 85.3726 53.9458 94.77 53.9458C95.2811 53.9458 95.7493 53.9694 96.1744 54.0167L100.902 54.2154C114.464 88.0856 118.205 110.683 112.123 122.008H70.9196C68.4784 126.203 66.1423 129.732 63.9114 132.596H52.6842C51.6275 107.421 59.7502 86.0544 77.0522 68.495Z" fill="#FF9B21"/>
<path fill-rule="evenodd" clip-rule="evenodd" d="M79.892 104.613C81.1879 112.603 83.294 118.401 86.2105 122.008H70.9197C73.7673 117.115 76.7581 111.317 79.892 104.613Z" fill="black" fill-opacity="0.1"/>
</svg>
