<svg width="223" height="264" viewBox="0 0 223 264" fill="none" xmlns="http://www.w3.org/2000/svg">
<path fill-rule="evenodd" clip-rule="evenodd" d="M83.9184 56.4888C90.6254 56.4888 93.0646 48.9632 96.8751 44.8334C99.6014 41.8787 104.254 42.7597 105.632 38.6231C109.095 28.2211 99.8254 20.9 87.7329 20.9C75.6404 20.9 67.4868 27.3208 65.7263 36.9731C63.9658 46.6253 71.8259 56.4888 83.9184 56.4888Z" fill="#FF5400"/>
<path fill-rule="evenodd" clip-rule="evenodd" d="M84.6592 49.7696C81.9551 46.7948 80.1249 43.1491 80.4307 39.064C81.3119 27.2937 98.794 29.883 102.195 35.8237C105.595 41.7643 105.191 56.8332 100.796 57.8949C99.0435 58.3183 95.3096 57.2811 91.5094 55.1344L93.8947 70.95H79.8105L84.6592 49.7696Z" fill="#0096C7"/>
<path fill-rule="evenodd" clip-rule="evenodd" d="M90.5966 42.1979C90.0848 41.9441 89.4985 41.8 88.8753 41.8C86.8799 41.8 85.2623 43.2775 85.2623 45.1C85.2623 45.8439 85.5318 46.5303 85.9864 47.0822C85.1304 48.4046 84.5461 49.7941 84.3546 51.2225C81.3874 51.2225 70.5581 40.7 81.3462 30.8C92.1342 20.9 107.724 35.0328 103.04 35.857C100.346 36.3309 94.9216 38.7409 90.5966 42.1979Z" fill="#FF5400"/>
<path fill-rule="evenodd" clip-rule="evenodd" d="M78.6368 116.6L107.44 184.925L126.758 242.688H134.387L104.853 116.6L78.6368 116.6Z" fill="#0096C7"/>
<path fill-rule="evenodd" clip-rule="evenodd" d="M72.8369 116.6C72.5301 140.61 68.0571 172.935 67.3425 174.432C66.8661 175.43 50.4192 188.118 18.0019 212.497L23.256 217.766C61.5054 196.864 81.5152 185.02 83.2852 182.232C85.9402 178.05 94.5839 139.57 101.524 116.6H72.8369Z" fill="#0096C7"/>
<path fill-rule="evenodd" clip-rule="evenodd" d="M17.2483 210.721C15.4931 211.296 14.2849 211.843 13.6238 212.363C12.8197 212.995 11.76 214.044 10.4447 215.511C11.2365 216.394 18.3528 224.336 31.7934 239.334C34.5088 238.254 35.355 236.98 34.332 235.511C33.309 234.042 32.4717 232.811 31.8199 231.82L27.1086 216.65C27.0179 216.358 26.6931 216.188 26.383 216.27C26.3777 216.271 26.3724 216.273 26.3672 216.274L23.9066 216.995C22.1919 216.239 20.9887 215.474 20.2969 214.703C19.7348 214.075 19.226 212.999 18.7705 211.473C18.5957 210.888 17.9498 210.541 17.3278 210.698C17.301 210.705 17.2745 210.713 17.2483 210.721Z" fill="#E4E4E4"/>
<path fill-rule="evenodd" clip-rule="evenodd" d="M123.635 240.021C122.978 241.664 122.65 242.893 122.65 243.708C122.65 244.7 122.826 246.147 123.179 248.05C124.407 248.05 135.44 248.05 156.278 248.05C157.138 245.385 156.641 243.946 154.788 243.734C152.935 243.521 151.396 243.329 150.17 243.158L134.786 236.73C134.49 236.607 134.143 236.731 134.011 237.009C134.009 237.014 134.007 237.018 134.004 237.023L133.016 239.271C131.3 240.021 129.906 240.397 128.833 240.397C127.962 240.397 126.758 240.067 125.223 239.407C124.634 239.154 123.937 239.396 123.667 239.949C123.655 239.972 123.645 239.997 123.635 240.021Z" fill="#E4E4E4"/>
<path fill-rule="evenodd" clip-rule="evenodd" d="M98.0026 236.738L134.272 233.049L107.392 116.6H74.9069L98.0026 236.738Z" fill="#69A1AC"/>
<path fill-rule="evenodd" clip-rule="evenodd" d="M25.5041 203.995L49.2947 230.387C74.3529 204.737 88.9618 188.001 93.1216 180.178C97.2814 172.355 101.021 151.162 104.34 116.6H67.7674C65.9544 147.006 64.7323 162.917 64.1011 164.332C63.4699 165.747 50.6042 178.968 25.5041 203.995Z" fill="#89C5CC"/>
<path fill-rule="evenodd" clip-rule="evenodd" d="M124.621 107.586L142.336 121.661C147.305 123.274 151.417 125.145 154.673 127.274C155.425 128.012 156.291 129.464 152.98 129.005C149.669 128.547 146.165 128.205 145.626 129.239C145.087 130.273 147.007 131.678 145.971 133.053C145.281 133.969 142.535 131.378 137.735 125.277L119.78 116.879L124.621 107.586ZM44.4047 101.495L54.7987 102.909C43.6416 125.597 37.6602 137.595 36.8544 138.904C35.0413 141.851 37.1736 146.982 38.0072 149.699C33.7946 150.839 35.1399 144.739 29.8134 146.26C24.9516 147.649 20.9395 150.797 16.1243 147.054C15.5323 146.593 15.0336 145.088 16.9153 144.212C21.6032 142.027 28.486 138.029 29.556 136.556C31.015 134.547 35.9645 122.86 44.4047 101.495Z" fill="#0096C7"/>
<path fill-rule="evenodd" clip-rule="evenodd" d="M87.8473 61.7826L94.2879 59.7865C103.025 80.2411 116.054 100.032 137.824 116.749L132.441 125.453C113.308 114.89 95.1967 106.685 87.8473 90.8351C85.3807 85.5154 87.6461 68.1433 87.8473 61.7826Z" fill="#C5CFD6"/>
<path fill-rule="evenodd" clip-rule="evenodd" d="M65.7263 119.35C84.1757 121.183 98.6973 121.183 109.291 119.35C110.604 119.123 110.811 117.063 110.202 115.666C100.723 93.8984 94.2235 74.9054 94.2235 59.7865C92.4843 60.6082 89.4405 60.7314 85.0921 60.1559C73.4059 75.7365 68.0341 93.6134 65.7263 119.35Z" fill="#323337"/>
<path fill-rule="evenodd" clip-rule="evenodd" d="M82.1869 58.85H87.0571C88.1911 65.1007 91.7677 149.744 102.809 177.433H43.0656C44.3608 152.068 54.578 121.598 64.9281 96.1006C55.7761 103.95 47.7993 117.25 40.9979 136L29.8073 133.308C38.1279 99.7046 55.235 75.0062 81.1287 59.2125C81.1848 59.0911 81.2406 58.9702 81.2962 58.85H81.7272C81.8858 58.7546 82.0447 58.6595 82.204 58.5647L82.1869 58.85Z" fill="#DDE3E9"/>
</svg>
