<svg width="32" height="32" viewBox="0 0 32 32" fill="none" xmlns="http://www.w3.org/2000/svg">
<g clip-path="url(#clip0_3_239)">
<path d="M30.713 9.71212L26.938 13.4751C26.188 22.2121 18.813 29.0001 10 29.0001C8.188 29.0001 6.688 28.7121 5.55 28.1501C4.638 27.6871 4.263 27.2001 4.163 27.0501C3.995 26.7951 3.953 26.4781 4.047 26.1891C4.142 25.8991 4.364 25.6681 4.65 25.5621C4.675 25.5501 7.625 24.4251 9.538 22.2621C8.351 21.4181 7.309 20.3881 6.45 19.2121C4.738 16.8871 2.925 12.8501 4.013 6.82512C4.082 6.46012 4.346 6.16312 4.7 6.05012C5.055 5.93412 5.446 6.02512 5.713 6.28712C5.75 6.33712 9.913 10.4371 15 11.7621V11.0001C15.01 9.39912 15.656 7.86712 16.795 6.74212C17.934 5.61712 19.474 4.99012 21.075 5.00012C23.192 5.03012 25.137 6.16912 26.2 8.00012H30C30.404 7.99912 30.769 8.24012 30.925 8.61212C31.072 8.98912 30.989 9.41712 30.713 9.71212Z" fill="#FF9E00"/>
</g>
<defs>
<clipPath id="clip0_3_239">
<rect width="32" height="32" fill="white"/>
</clipPath>
</defs>
</svg>
